<svg width="77" height="78" viewBox="0 0 77 78" fill="none" xmlns="http://www.w3.org/2000/svg">
<path d="M74.018 48.132C68.8151 67.5493 48.8565 79.0724 29.4392 73.8695C10.0219 68.6667 -1.50118 48.7081 3.70167 29.2908C8.90453 9.87348 28.8631 -1.64962 48.2804 3.55323C58.0985 6.18397 65.8982 12.5872 70.538 20.7855" stroke="#6574EF" stroke-width="4.08886" stroke-linecap="round"/>
<path d="M62.0031 18.5236L72.3983 22.7226L70.8371 11.6206" stroke="#6574EF" stroke-width="4.08886" stroke-linecap="round" stroke-linejoin="round"/>
<mask id="path-3-outside-1_162_61" maskUnits="userSpaceOnUse" x="11.2798" y="11.2123" width="55" height="55" fill="black">
<rect fill="white" x="11.2798" y="11.2123" width="55" height="55"/>
<path fill-rule="evenodd" clip-rule="evenodd" d="M43.9149 16.2203L50.9871 19.1396L49.7541 24.5946C50.9463 25.5112 51.9985 26.561 52.8821 27.7111L58.3318 26.4375L61.2633 33.5265L56.5089 36.5091C56.6827 37.9392 56.7102 39.415 56.5264 40.8885L61.2521 43.8367L58.3178 50.9452L52.8885 49.7015C51.9794 50.8756 50.9263 51.8841 49.7944 52.7752L51.0605 58.243L43.9821 61.2001L40.9889 56.4201C39.5513 56.612 38.0649 56.6139 36.6095 56.4376L33.6282 61.1921L26.556 58.2727L27.7965 52.7997L26.6054 51.7774L25.7045 50.875L24.7046 49.6981L19.2112 50.9749L16.2798 43.8858L21.0416 40.8851L20.9352 39.2918L20.933 38.1661L21.0529 36.5389L16.291 33.5757L19.2253 26.4672L24.6908 27.7258C25.5925 26.5699 26.6092 25.5464 27.7411 24.6553L26.4825 19.1694L33.5609 16.2123L36.5542 20.9922L38.6906 20.8554C39.4557 20.8529 40.2058 20.8866 40.9335 20.9747L43.9149 16.2203ZM49.3473 43.0612C48.479 45.1647 47.054 46.8686 45.3211 48.0847C42.23 50.2257 38.1649 50.8187 34.4294 49.2766C28.5903 46.8663 25.8292 40.1871 28.2395 34.348C29.1452 32.1538 30.6364 30.3923 32.4932 29.185C35.5681 27.1858 39.5232 26.6536 43.15 28.1507C48.9891 30.561 51.7502 37.2402 49.3473 43.0612Z"/>
</mask>
<path fill-rule="evenodd" clip-rule="evenodd" d="M43.9149 16.2203L50.9871 19.1396L49.7541 24.5946C50.9463 25.5112 51.9985 26.561 52.8821 27.7111L58.3318 26.4375L61.2633 33.5265L56.5089 36.5091C56.6827 37.9392 56.7102 39.415 56.5264 40.8885L61.2521 43.8367L58.3178 50.9452L52.8885 49.7015C51.9794 50.8756 50.9263 51.8841 49.7944 52.7752L51.0605 58.243L43.9821 61.2001L40.9889 56.4201C39.5513 56.612 38.0649 56.6139 36.6095 56.4376L33.6282 61.1921L26.556 58.2727L27.7965 52.7997L26.6054 51.7774L25.7045 50.875L24.7046 49.6981L19.2112 50.9749L16.2798 43.8858L21.0416 40.8851L20.9352 39.2918L20.933 38.1661L21.0529 36.5389L16.291 33.5757L19.2253 26.4672L24.6908 27.7258C25.5925 26.5699 26.6092 25.5464 27.7411 24.6553L26.4825 19.1694L33.5609 16.2123L36.5542 20.9922L38.6906 20.8554C39.4557 20.8529 40.2058 20.8866 40.9335 20.9747L43.9149 16.2203ZM49.3473 43.0612C48.479 45.1647 47.054 46.8686 45.3211 48.0847C42.23 50.2257 38.1649 50.8187 34.4294 49.2766C28.5903 46.8663 25.8292 40.1871 28.2395 34.348C29.1452 32.1538 30.6364 30.3923 32.4932 29.185C35.5681 27.1858 39.5232 26.6536 43.15 28.1507C48.9891 30.561 51.7502 37.2402 49.3473 43.0612Z" fill="#D9DDFF"/>
<path d="M50.9871 19.1396L54.9753 20.0411C55.4146 18.0976 54.389 16.1204 52.5472 15.3601L50.9871 19.1396ZM43.9149 16.2203L45.475 12.4408C43.6324 11.6802 41.5098 12.3592 40.4507 14.0481L43.9149 16.2203ZM49.7541 24.5946L45.7658 23.6931C45.4144 25.2476 45.9983 26.8647 47.2618 27.8361L49.7541 24.5946ZM52.8821 27.7111L49.6398 30.2022C50.6177 31.475 52.2497 32.0579 53.8126 31.6926L52.8821 27.7111ZM58.3318 26.4375L62.1103 24.875C61.345 23.0241 59.3516 22.0001 57.4013 22.4559L58.3318 26.4375ZM61.2633 33.5265L63.4362 36.9902C65.1254 35.9305 65.8038 33.8068 65.0418 31.9641L61.2633 33.5265ZM56.5089 36.5091L54.336 33.0454C52.9937 33.8875 52.2588 35.4293 52.4499 37.0023L56.5089 36.5091ZM56.5264 40.8885L52.469 40.3825C52.2719 41.9631 53.0107 43.5144 54.3621 44.3576L56.5264 40.8885ZM61.2521 43.8367L65.0316 45.3969C65.7936 43.5509 65.1107 41.4246 63.4164 40.3676L61.2521 43.8367ZM58.3178 50.9452L57.4048 54.9308C59.3514 55.3767 61.3353 54.3512 62.0973 52.5053L58.3178 50.9452ZM52.8885 49.7015L53.8014 45.7159C52.2487 45.3602 50.6308 45.9387 49.6555 47.1981L52.8885 49.7015ZM49.7944 52.7752L47.2652 49.5625C46.0201 50.5426 45.4535 52.1539 45.811 53.6976L49.7944 52.7752ZM51.0605 58.243L52.6367 62.0159C54.4767 61.2472 55.4938 59.2633 55.044 57.3206L51.0605 58.243ZM43.9821 61.2001L40.5166 63.3702C41.5786 65.0661 43.7119 65.7443 45.5583 64.9729L43.9821 61.2001ZM40.9889 56.4201L44.4543 54.25C43.6034 52.8912 42.037 52.1551 40.4479 52.3672L40.9889 56.4201ZM36.6095 56.4376L37.1012 52.3784C35.5284 52.1879 33.9871 52.9231 33.1454 54.2654L36.6095 56.4376ZM33.6282 61.1921L32.068 64.9716C33.9107 65.7322 36.0333 65.0532 37.0923 63.3643L33.6282 61.1921ZM26.556 58.2727L22.5683 57.3689C22.1276 59.313 23.1532 61.2916 24.9958 62.0522L26.556 58.2727ZM27.7965 52.7997L31.7842 53.7035C32.1191 52.2257 31.6094 50.6838 30.4595 49.6969L27.7965 52.7997ZM26.6054 51.7774L23.7116 54.6662C23.7858 54.7404 23.8628 54.8118 23.9424 54.8802L26.6054 51.7774ZM25.7045 50.875L22.5886 53.5225C22.6594 53.6058 22.7335 53.6863 22.8107 53.7637L25.7045 50.875ZM24.7046 49.6981L27.8206 47.0506C26.8295 45.8841 25.2699 45.3689 23.779 45.7154L24.7046 49.6981ZM19.2112 50.9749L15.4327 52.5374C16.1973 54.3865 18.1879 55.4106 20.1369 54.9576L19.2112 50.9749ZM16.2798 43.8858L14.0999 40.4265C12.4154 41.488 11.7404 43.6084 12.5012 45.4483L16.2798 43.8858ZM21.0416 40.8851L23.2215 44.3444C24.492 43.5438 25.2214 42.1111 25.1214 40.6127L21.0416 40.8851ZM20.9352 39.2918L16.8464 39.2999C16.8466 39.3881 16.8496 39.4762 16.8555 39.5642L20.9352 39.2918ZM20.933 38.1661L16.8552 37.8657C16.8476 37.9683 16.844 38.0712 16.8442 38.1741L20.933 38.1661ZM21.0529 36.5389L25.1307 36.8393C25.2424 35.3232 24.5038 33.8704 23.2132 33.0673L21.0529 36.5389ZM16.291 33.5757L12.5115 32.0155C11.7488 33.8631 12.4336 35.9912 14.1307 37.0473L16.291 33.5757ZM19.2253 26.4672L20.1429 22.4826C18.195 22.0341 16.2084 23.0595 15.4458 24.907L19.2253 26.4672ZM24.6908 27.7258L23.7733 31.7104C25.3221 32.0671 26.9374 31.4939 27.9149 30.2406L24.6908 27.7258ZM27.7411 24.6553L30.2704 27.868C31.5131 26.8897 32.0801 25.2825 31.7265 23.7409L27.7411 24.6553ZM26.4825 19.1694L24.9064 15.3965C23.0692 16.164 22.052 18.1431 22.4972 20.0837L26.4825 19.1694ZM33.5609 16.2123L37.0264 14.0422C35.9644 12.3463 33.8311 11.6681 31.9848 12.4394L33.5609 16.2123ZM36.5542 20.9922L33.0887 23.1623C33.8858 24.4353 35.3167 25.1688 36.8156 25.0727L36.5542 20.9922ZM38.6906 20.8554L38.6771 16.7666C38.5944 16.7668 38.5118 16.7696 38.4292 16.7749L38.6906 20.8554ZM40.9335 20.9747L40.4418 25.0339C42.0147 25.2244 43.556 24.4892 44.3976 23.147L40.9335 20.9747ZM45.3211 48.0847L47.6493 51.4459C47.6561 51.4412 47.6629 51.4365 47.6697 51.4317L45.3211 48.0847ZM49.3473 43.0612L45.5678 41.501L45.5678 41.501L49.3473 43.0612ZM34.4294 49.2766L35.9895 45.4971L35.9895 45.4971L34.4294 49.2766ZM28.2395 34.348L32.019 35.9082L32.019 35.9082L28.2395 34.348ZM32.4932 29.185L30.2644 25.7569L30.2641 25.7571L32.4932 29.185ZM43.15 28.1507L41.5898 31.9302L41.5898 31.9302L43.15 28.1507ZM52.5472 15.3601L45.475 12.4408L42.3547 19.9998L49.4269 22.9192L52.5472 15.3601ZM53.7423 25.496L54.9753 20.0411L46.9988 18.2382L45.7658 23.6931L53.7423 25.496ZM56.1245 25.2199C55.0184 23.7802 53.712 22.4799 52.2463 21.353L47.2618 27.8361C48.1805 28.5424 48.9787 29.3418 49.6398 30.2022L56.1245 25.2199ZM57.4013 22.4559L51.9517 23.7295L53.8126 31.6926L59.2623 30.419L57.4013 22.4559ZM65.0418 31.9641L62.1103 24.875L54.5533 28L57.4847 35.089L65.0418 31.9641ZM58.6818 39.9728L63.4362 36.9902L59.0903 30.0628L54.336 33.0454L58.6818 39.9728ZM60.5839 41.3945C60.815 39.5406 60.7756 37.7254 60.5679 36.016L52.4499 37.0023C52.5897 38.1529 52.6053 39.2893 52.469 40.3825L60.5839 41.3945ZM63.4164 40.3676L58.6907 37.4194L54.3621 44.3576L59.0878 47.3058L63.4164 40.3676ZM62.0973 52.5053L65.0316 45.3969L57.4726 42.2766L54.5383 49.385L62.0973 52.5053ZM51.9755 53.6872L57.4048 54.9308L59.2307 46.9595L53.8014 45.7159L51.9755 53.6872ZM52.3237 55.988C53.6644 54.9324 54.9695 53.6925 56.1214 52.2049L49.6555 47.1981C48.9892 48.0587 48.1882 48.8358 47.2652 49.5625L52.3237 55.988ZM55.044 57.3206L53.7779 51.8528L45.811 53.6976L47.0771 59.1654L55.044 57.3206ZM45.5583 64.9729L52.6367 62.0159L49.4844 54.4701L42.406 57.4272L45.5583 64.9729ZM37.5234 58.5902L40.5166 63.3702L47.4476 59.03L44.4543 54.25L37.5234 58.5902ZM36.1179 60.4968C37.901 60.7128 39.7348 60.7126 41.5298 60.473L40.4479 52.3672C39.3679 52.5114 38.2287 52.515 37.1012 52.3784L36.1179 60.4968ZM37.0923 63.3643L40.0737 58.6098L33.1454 54.2654L30.1641 59.0198L37.0923 63.3643ZM24.9958 62.0522L32.068 64.9716L35.1883 57.4126L28.1161 54.4932L24.9958 62.0522ZM23.8088 51.8958L22.5683 57.3689L30.5437 59.1765L31.7842 53.7035L23.8088 51.8958ZM23.9424 54.8802L25.1334 55.9024L30.4595 49.6969L29.2685 48.6747L23.9424 54.8802ZM22.8107 53.7637L23.7116 54.6662L29.4992 48.8887L28.5983 47.9862L22.8107 53.7637ZM21.5887 52.3457L22.5886 53.5225L28.8205 48.2274L27.8206 47.0506L21.5887 52.3457ZM20.1369 54.9576L25.6303 53.6809L23.779 45.7154L18.2856 46.9922L20.1369 54.9576ZM12.5012 45.4483L15.4327 52.5374L22.9898 49.4124L20.0583 42.3233L12.5012 45.4483ZM18.8617 37.4258L14.0999 40.4265L18.4597 47.3451L23.2215 44.3444L18.8617 37.4258ZM16.8555 39.5642L16.9618 41.1575L25.1214 40.6127L25.015 39.0194L16.8555 39.5642ZM16.8442 38.1741L16.8464 39.2999L25.0241 39.2838L25.0219 38.158L16.8442 38.1741ZM16.9751 36.2385L16.8552 37.8657L25.0108 38.4665L25.1307 36.8393L16.9751 36.2385ZM14.1307 37.0473L18.8926 40.0105L23.2132 33.0673L18.4512 30.1041L14.1307 37.0473ZM15.4458 24.907L12.5115 32.0155L20.0705 35.1358L23.0048 28.0273L15.4458 24.907ZM25.6084 23.7412L20.1429 22.4826L18.3077 30.4518L23.7733 31.7104L25.6084 23.7412ZM25.2119 21.4425C23.8166 22.541 22.5675 23.7999 21.4668 25.211L27.9149 30.2406C28.6175 29.3398 29.4019 28.5517 30.2704 27.868L25.2119 21.4425ZM22.4972 20.0837L23.7558 25.5696L31.7265 23.7409L30.4678 18.255L22.4972 20.0837ZM31.9848 12.4394L24.9064 15.3965L28.0587 22.9422L35.1371 19.9851L31.9848 12.4394ZM40.0197 18.8221L37.0264 14.0422L30.0955 18.3824L33.0887 23.1623L40.0197 18.8221ZM38.4292 16.7749L36.2928 16.9117L36.8156 25.0727L38.952 24.9359L38.4292 16.7749ZM41.4252 16.9155C40.4916 16.8025 39.5675 16.7636 38.6771 16.7666L38.7041 24.9442C39.3439 24.9421 39.9201 24.9707 40.4418 25.0339L41.4252 16.9155ZM40.4507 14.0481L37.4694 18.8025L44.3976 23.147L47.379 18.3925L40.4507 14.0481ZM47.6697 51.4317C50.0129 49.7875 51.949 47.4746 53.1268 44.6213L45.5678 41.501C45.009 42.8548 44.0952 43.9498 42.9724 44.7376L47.6697 51.4317ZM32.8692 53.0562C37.9539 55.1551 43.4771 54.3359 47.6493 51.4459L42.9928 44.7234C40.9829 46.1156 38.376 46.4822 35.9895 45.4971L32.8692 53.0562ZM24.46 32.7879C21.1915 40.7059 24.9343 49.7807 32.8692 53.0562L35.9895 45.4971C32.2462 43.9519 30.4668 39.6684 32.019 35.9082L24.46 32.7879ZM30.2641 25.7571C27.7119 27.4167 25.6809 29.8302 24.46 32.7879L32.019 35.9082C32.6096 34.4775 33.5609 33.368 34.7222 32.6128L30.2641 25.7571ZM44.7101 24.3712C39.7592 22.3275 34.3927 23.0729 30.2644 25.7569L34.7219 32.613C36.7435 31.2987 39.2872 30.9797 41.5898 31.9302L44.7101 24.3712ZM53.1268 44.6213C56.3896 36.7172 52.6408 27.6449 44.7101 24.3712L41.5898 31.9302C45.3373 33.4771 47.1107 37.7632 45.5678 41.501L53.1268 44.6213Z" fill="#6574EF" mask="url(#path-3-outside-1_162_61)"/>
</svg>
